solid Visualization Toolkit generated SLA File
 facet normal -1 0 0
  outer loop
   vertex -11.811023712158203 -2.6225740939263449e-15 0
   vertex -11.811023712158203 -11.811023712158203 0
   vertex -11.811023712158203 -11.811023712158203 0.59055119752883911
  endloop
 endfacet
 facet normal -1 -0 -0
  outer loop
   vertex -11.811023712158203 -11.811023712158203 0.59055119752883911
   vertex -11.811023712158203 -2.6225740939263449e-15 0.59055119752883911
   vertex -11.811023712158203 -2.6225740939263449e-15 0
  endloop
 endfacet
 facet normal -1 0 0
  outer loop
   vertex -11.811023712158203 11.811023712158203 0
   vertex -11.811023712158203 -2.6225740939263449e-15 0
   vertex -11.811023712158203 -2.6225740939263449e-15 0.59055119752883911
  endloop
 endfacet
 facet normal -1 -0 -0
  outer loop
   vertex -11.811023712158203 -2.6225740939263449e-15 0.59055119752883911
   vertex -11.811023712158203 11.811023712158203 0.59055119752883911
   vertex -11.811023712158203 11.811023712158203 0
  endloop
 endfacet
 facet normal 0 -1 0
  outer loop
   vertex 1.3112870469631725e-15 -11.811023712158203 0
   vertex 11.811023712158203 -11.811023712158203 0
   vertex 11.811023712158203 -11.811023712158203 0.59055119752883911
  endloop
 endfacet
 facet normal 0 -1 0
  outer loop
   vertex 11.811023712158203 -11.811023712158203 0.59055119752883911
   vertex 1.3112870469631725e-15 -11.811023712158203 0.59055119752883911
   vertex 1.3112870469631725e-15 -11.811023712158203 0
  endloop
 endfacet
 facet normal 0 -1 0
  outer loop
   vertex -11.811023712158203 -11.811023712158203 0
   vertex 1.3112870469631725e-15 -11.811023712158203 0
   vertex 1.3112870469631725e-15 -11.811023712158203 0.59055119752883911
  endloop
 endfacet
 facet normal 0 -1 0
  outer loop
   vertex 1.3112870469631725e-15 -11.811023712158203 0.59055119752883911
   vertex -11.811023712158203 -11.811023712158203 0.59055119752883911
   vertex -11.811023712158203 -11.811023712158203 0
  endloop
 endfacet
 facet normal 1 0 -0
  outer loop
   vertex 11.811023712158203 0 0
   vertex 11.811023712158203 11.811023712158203 0
   vertex 11.811023712158203 11.811023712158203 0.59055119752883911
  endloop
 endfacet
 facet normal 1 -0 0
  outer loop
   vertex 11.811023712158203 11.811023712158203 0.59055119752883911
   vertex 11.811023712158203 0 0.59055119752883911
   vertex 11.811023712158203 0 0
  endloop
 endfacet
 facet normal 1 0 -0
  outer loop
   vertex 11.811023712158203 -11.811023712158203 0
   vertex 11.811023712158203 0 0
   vertex 11.811023712158203 0 0.59055119752883911
  endloop
 endfacet
 facet normal 1 -0 0
  outer loop
   vertex 11.811023712158203 0 0.59055119752883911
   vertex 11.811023712158203 -11.811023712158203 0.59055119752883911
   vertex 11.811023712158203 -11.811023712158203 0
  endloop
 endfacet
 facet normal 0 1 0
  outer loop
   vertex -3.9370079040527344 11.811023712158203 0
   vertex -11.811023712158203 11.811023712158203 0
   vertex -11.811023712158203 11.811023712158203 0.59055119752883911
  endloop
 endfacet
 facet normal 0 1 0
  outer loop
   vertex -11.811023712158203 11.811023712158203 0.59055119752883911
   vertex -3.9370079040527344 11.811023712158203 0.59055119752883911
   vertex -3.9370079040527344 11.811023712158203 0
  endloop
 endfacet
 facet normal 0 1 0
  outer loop
   vertex 3.9370079040527344 11.811023712158203 0
   vertex -3.9370079040527344 11.811023712158203 0
   vertex -3.9370079040527344 11.811023712158203 0.59055119752883911
  endloop
 endfacet
 facet normal 0 1 0
  outer loop
   vertex -3.9370079040527344 11.811023712158203 0.59055119752883911
   vertex 3.9370079040527344 11.811023712158203 0.59055119752883911
   vertex 3.9370079040527344 11.811023712158203 0
  endloop
 endfacet
 facet normal 0 1 0
  outer loop
   vertex 11.811023712158203 11.811023712158203 0
   vertex 3.9370079040527344 11.811023712158203 0
   vertex 3.9370079040527344 11.811023712158203 0.59055119752883911
  endloop
 endfacet
 facet normal 0 1 0
  outer loop
   vertex 3.9370079040527344 11.811023712158203 0.59055119752883911
   vertex 11.811023712158203 11.811023712158203 0.59055119752883911
   vertex 11.811023712158203 11.811023712158203 0
  endloop
 endfacet
 facet normal 0 0 1
  outer loop
   vertex 11.811023712158203 0 0.59055119752883911
   vertex 11.811023712158203 11.811023712158203 0.59055119752883911
   vertex 3.9370079040527344 11.811023712158203 0.59055119752883911
  endloop
 endfacet
 facet normal 0 -0 1
  outer loop
   vertex 1.3112870469631725e-15 -11.811023712158203 0.59055119752883911
   vertex 11.811023712158203 -11.811023712158203 0.59055119752883911
   vertex 11.811023712158203 0 0.59055119752883911
  endloop
 endfacet
 facet normal -0 0 1
  outer loop
   vertex 11.811023712158203 0 0.59055119752883911
   vertex -11.811023712158203 -2.6225740939263449e-15 0.59055119752883911
   vertex 1.3112870469631725e-15 -11.811023712158203 0.59055119752883911
  endloop
 endfacet
 facet normal 0 0 1
  outer loop
   vertex -11.811023712158203 -2.6225740939263449e-15 0.59055119752883911
   vertex -11.811023712158203 -11.811023712158203 0.59055119752883911
   vertex 1.3112870469631725e-15 -11.811023712158203 0.59055119752883911
  endloop
 endfacet
 facet normal 0 0 1
  outer loop
   vertex -11.811023712158203 -2.6225740939263449e-15 0.59055119752883911
   vertex 11.811023712158203 0 0.59055119752883911
   vertex 3.9370079040527344 11.811023712158203 0.59055119752883911
  endloop
 endfacet
 facet normal -0 0 1
  outer loop
   vertex 3.9370079040527344 11.811023712158203 0.59055119752883911
   vertex -3.9370079040527344 11.811023712158203 0.59055119752883911
   vertex -11.811023712158203 -2.6225740939263449e-15 0.59055119752883911
  endloop
 endfacet
 facet normal -0 0 1
  outer loop
   vertex -3.9370079040527344 11.811023712158203 0.59055119752883911
   vertex -11.811023712158203 11.811023712158203 0.59055119752883911
   vertex -11.811023712158203 -2.6225740939263449e-15 0.59055119752883911
  endloop
 endfacet
 facet normal 0 0 -1
  outer loop
   vertex -11.811023712158203 -2.6225740939263449e-15 0
   vertex -11.811023712158203 11.811023712158203 0
   vertex -3.9370079040527344 11.811023712158203 0
  endloop
 endfacet
 facet normal 0 -0 -1
  outer loop
   vertex -11.811023712158203 -2.6225740939263449e-15 0
   vertex 11.811023712158203 0 0
   vertex 11.811023712158203 -11.811023712158203 0
  endloop
 endfacet
 facet normal 0 0 -1
  outer loop
   vertex 11.811023712158203 -11.811023712158203 0
   vertex 1.3112870469631725e-15 -11.811023712158203 0
   vertex -11.811023712158203 -2.6225740939263449e-15 0
  endloop
 endfacet
 facet normal 0 0 -1
  outer loop
   vertex 1.3112870469631725e-15 -11.811023712158203 0
   vertex -11.811023712158203 -11.811023712158203 0
   vertex -11.811023712158203 -2.6225740939263449e-15 0
  endloop
 endfacet
 facet normal 0 0 -1
  outer loop
   vertex 11.811023712158203 0 0
   vertex -11.811023712158203 -2.6225740939263449e-15 0
   vertex -3.9370079040527344 11.811023712158203 0
  endloop
 endfacet
 facet normal -0 -0 -1
  outer loop
   vertex -3.9370079040527344 11.811023712158203 0
   vertex 3.9370079040527344 11.811023712158203 0
   vertex 11.811023712158203 0 0
  endloop
 endfacet
 facet normal -0 -0 -1
  outer loop
   vertex 3.9370079040527344 11.811023712158203 0
   vertex 11.811023712158203 11.811023712158203 0
   vertex 11.811023712158203 0 0
  endloop
 endfacet
endsolid
